<svg xmlns="http://www.w3.org/2000/svg" xmlns:xlink="http://www.w3.org/1999/xlink" version="1.1" x="0px" y="0px" viewBox="0 0 100 100" style="enable-background:new 0 0 100 100;" xml:space="preserve"><g><circle cx="37.5" cy="12.5" r="7.5"></circle><circle cx="62.5" cy="12.5" r="7.5"></circle><circle cx="12.5" cy="37.5" r="7.5"></circle><path d="M37.5,30c-1.9,0-3.6,0.7-4.9,1.9L18.2,17.5l-0.4,0.4c1.4-1.4,2.2-3.2,2.2-5.3C20,8.4,16.6,5,12.5,5S5,8.4,5,12.5   S8.4,20,12.5,20c2.1,0,3.9-0.8,5.3-2.2l-0.4,0.4l14.4,14.4c-1.2,1.3-1.9,3-1.9,4.9c0,4.1,3.4,7.5,7.5,7.5s7.5-3.4,7.5-7.5   S41.6,30,37.5,30z M12.5,19C8.9,19,6,16.1,6,12.5S8.9,6,12.5,6S19,8.9,19,12.5S16.1,19,12.5,19z M37.5,44c-3.6,0-6.5-2.9-6.5-6.5   s2.9-6.5,6.5-6.5s6.5,2.9,6.5,6.5S41.1,44,37.5,44z"></path><path d="M87.5,30H88V20h-0.5H87v10H87.5c-4.1,0-7.5,3.4-7.5,7.5c0,4.1,3.4,7.5,7.5,7.5s7.5-3.4,7.5-7.5C95,33.4,91.6,30,87.5,30z    M87.5,44c-3.6,0-6.5-2.9-6.5-6.5s2.9-6.5,6.5-6.5s6.5,2.9,6.5,6.5S91.1,44,87.5,44z"></path><circle cx="37.5" cy="62.5" r="7.5"></circle><path d="M62.5,55c-4.1,0-7.5,3.4-7.5,7.5c0,4.1,3.4,7.5,7.5,7.5s7.5-3.4,7.5-7.5C70,58.3,66.6,55,62.5,55z M62.5,69   c-3.6,0-6.5-2.9-6.5-6.5s2.9-6.5,6.5-6.5s6.5,2.9,6.5,6.5S66.1,69,62.5,69z"></path><circle cx="87.5" cy="62.5" r="7.5"></circle><circle cx="12.5" cy="87.5" r="7.5"></circle><path d="M37.5,80c-1.9,0-3.7,0.7-5,1.9l0.1-0.1L18.1,67.4l0,0c1.2-1.3,1.9-3.1,1.9-5c0-1.9-0.7-3.7-1.9-5l0.1,0.1l14.4-14.4   l-0.7-0.7L17.4,56.8l0.1,0.1c-1.3-1.2-3.1-1.9-5-1.9C8.4,55,5,58.3,5,62.5c0,4.1,3.4,7.5,7.5,7.5c1.9,0,3.7-0.7,5-1.9l-0.1,0.1   l14.4,14.4l0.1-0.1c-1.2,1.3-1.9,3.1-1.9,5c0,4.1,3.4,7.5,7.5,7.5s7.5-3.4,7.5-7.5S41.6,80,37.5,80z M12.5,69C8.9,69,6,66.1,6,62.5   S8.9,56,12.5,56s6.5,2.9,6.5,6.5S16.1,69,12.5,69z M37.5,94c-3.6,0-6.5-2.9-6.5-6.5s2.9-6.5,6.5-6.5s6.5,2.9,6.5,6.5   S41.1,94,37.5,94z"></path><circle cx="62.5" cy="87.5" r="7.5"></circle><circle cx="87.5" cy="87.5" r="7.5"></circle><path d="M68.1,32.6l14.4-14.4l-0.4-0.4c1.4,1.4,3.2,2.2,5.3,2.2c4.1,0,7.5-3.4,7.5-7.5S91.6,5,87.5,5S80,8.4,80,12.5   c0,2.1,0.8,3.9,2.2,5.3l-0.4-0.4L67.4,31.9l0.1,0.1c-1.3-1.2-3.1-1.9-5-1.9c-4.1,0-7.5,3.4-7.5,7.5s3.4,7.5,7.5,7.5   s7.5-3.4,7.5-7.5C70,35.6,69.3,33.8,68.1,32.6L68.1,32.6z M87.5,6c3.6,0,6.5,2.9,6.5,6.5S91.1,19,87.5,19S81,16.1,81,12.5   S83.9,6,87.5,6z M62.5,44c-3.6,0-6.5-2.9-6.5-6.5s2.9-6.5,6.5-6.5s6.5,2.9,6.5,6.5S66.1,44,62.5,44z"></path><polygon points="70,37 70,37.5 70,38 80,38 80,37.5 80,37  "></polygon><polygon points="45,37 45,37.5 45,38 55,38 55,37.5 55,37  "></polygon><rect x="62" y="45" width="1" height="10"></rect></g></svg>